<svg width="30" height="31" viewBox="0 0 30 31" fill="none" xmlns="http://www.w3.org/2000/svg">
<path d="M26.6658 30.1351L26.6658 30.1352L26.6689 30.1382C26.9996 30.4695 27.4445 30.6545 27.9082 30.6503C28.3719 30.6461 28.8136 30.4532 29.1386 30.1161C29.4634 29.7793 29.6461 29.3256 29.65 28.853C29.654 28.3805 29.4789 27.9236 29.1599 27.5812L29.16 27.5811L29.157 27.578L23.8001 22.023C25.2422 20.0619 26.1404 17.7291 26.3967 15.2763C26.6606 12.7515 26.2337 10.2004 25.1644 7.91461C24.0951 5.6288 22.4263 3.70004 20.3476 2.35002C18.2689 0.999943 15.8647 0.283521 13.4104 0.283691C11.326 0.283876 9.27232 0.800983 7.42074 1.79135C5.56921 2.78169 3.97383 4.21634 2.76711 5.97484C1.56041 7.73331 0.777148 9.76487 0.482051 11.9C0.186955 14.035 0.388471 16.2124 1.06997 18.2506C1.75148 20.2889 2.89342 22.1294 4.40127 23.6183C5.90916 25.1072 7.73929 26.2013 9.7393 26.8085C11.7394 27.4157 13.8507 27.5182 15.8968 27.1072C17.8685 26.7112 19.7239 25.8496 21.3199 24.5914L26.6658 30.1351ZM3.86345 13.8191C3.86345 11.1881 4.87142 8.66656 6.66287 6.80883C8.45403 4.9514 10.8814 3.90967 13.4104 3.90967C15.9394 3.90967 18.3668 4.9514 20.1579 6.80883C21.9494 8.66656 22.9574 11.1881 22.9574 13.8191C22.9574 16.4501 21.9494 18.9716 20.1579 20.8293C18.3668 22.6868 15.9394 23.7285 13.4104 23.7285C10.8814 23.7285 8.45403 22.6868 6.66287 20.8293C4.87142 18.9716 3.86345 16.4501 3.86345 13.8191Z" fill="#C7C7C8" stroke="#C7C7C8" stroke-width="0.5"/>
</svg>
