<svg width="23" height="18" viewBox="0 0 23 18" fill="none" xmlns="http://www.w3.org/2000/svg">
<path d="M7.10017 14.5466L2.33654 9.5794C2.07986 9.31175 1.73172 9.16138 1.36871 9.16138C1.00571 9.16138 0.65757 9.31175 0.400887 9.5794C0.144203 9.84705 0 10.2101 0 10.5886C0 10.776 0.0354031 10.9616 0.104187 11.1347C0.172972 11.3079 0.27379 11.4652 0.400887 11.5978L6.1392 17.5813C6.6746 18.1396 7.53946 18.1396 8.07486 17.5813L22.5991 2.43638C22.8558 2.16873 23 1.80572 23 1.4272C23 1.04868 22.8558 0.68567 22.5991 0.418018C22.3424 0.150366 21.9943 0 21.6313 0C21.2683 0 20.9201 0.150366 20.6635 0.418018L7.10017 14.5466Z" fill="#2D2D2D"/>
</svg>
