<svg width="33" height="31" viewBox="0 0 33 31" fill="none" xmlns="http://www.w3.org/2000/svg">
<path d="M2.52001 9.2744H25.4L22.584 11.375C22.3991 11.5129 22.2433 11.6857 22.1256 11.8835C22.0078 12.0813 21.9304 12.3002 21.8977 12.5278C21.865 12.7553 21.8777 12.9871 21.9351 13.2098C21.9924 13.4325 22.0933 13.6417 22.232 13.8256C22.3959 14.043 22.6085 14.2195 22.8529 14.341C23.0973 14.4625 23.3668 14.5258 23.64 14.5258C24.0208 14.5258 24.3914 14.403 24.696 14.1757L31.736 8.92431C31.9513 8.76095 32.1257 8.55039 32.2458 8.30902C32.3659 8.06766 32.4284 7.80199 32.4284 7.53268C32.4284 7.26338 32.3659 6.99771 32.2458 6.75635C32.1257 6.51498 31.9513 6.30442 31.736 6.14106L24.9424 0.889658C24.5737 0.604143 24.106 0.476016 23.6422 0.533464C23.1785 0.590913 22.7567 0.829231 22.4696 1.19599C22.1825 1.56275 22.0537 2.02791 22.1115 2.48914C22.1692 2.95037 22.4089 3.36988 22.7776 3.6554L25.5408 5.77346H2.52001C2.05323 5.77346 1.60557 5.95789 1.2755 6.28616C0.945438 6.61444 0.76001 7.05968 0.76001 7.52393C0.76001 7.98819 0.945438 8.43342 1.2755 8.7617C1.60557 9.08998 2.05323 9.2744 2.52001 9.2744ZM30.68 21.5277H7.80001L10.616 19.4271C10.9894 19.1486 11.2363 18.7339 11.3023 18.2743C11.3683 17.8147 11.2481 17.3479 10.968 16.9765C10.6879 16.6051 10.271 16.3595 9.80891 16.2939C9.34682 16.2282 8.87743 16.3478 8.50401 16.6264L1.46401 21.8778C1.24875 22.0411 1.07429 22.2517 0.954202 22.4931C0.834116 22.7344 0.771642 23.0001 0.771642 23.2694C0.771642 23.5387 0.834116 23.8044 0.954202 24.0457C1.07429 24.2871 1.24875 24.4977 1.46401 24.661L8.25761 29.9124C8.56482 30.1496 8.94234 30.2788 9.33121 30.28C9.59999 30.2794 9.86506 30.2175 10.1061 30.0992C10.3471 29.9808 10.5577 29.8092 10.7216 29.5973C11.0074 29.2324 11.1364 28.7698 11.0803 28.3106C11.0243 27.8514 10.7877 27.433 10.4224 27.1467L7.65921 25.0286H30.68C31.1468 25.0286 31.5945 24.8442 31.9245 24.5159C32.2546 24.1876 32.44 23.7424 32.44 23.2781C32.44 22.8139 32.2546 22.3687 31.9245 22.0404C31.5945 21.7121 31.1468 21.5277 30.68 21.5277Z" fill="#A8A8A9"/>
</svg>
